<?xml version="1.0" encoding="UTF-8"?>
<svg version="1.1" xmlns="http://www.w3.org/2000/svg" width="426" height="429">
<path d="M0 0 C2.382642 -0.00407591 4.7652821 -0.00942345 7.1479187 -0.01593018 C13.55914497 -0.02948913 19.97022477 -0.02435254 26.38145328 -0.01479292 C30.39995975 -0.01023251 34.418431 -0.01048029 38.43693733 -0.0132637 C39.10812786 -0.0137234 39.77931838 -0.0141831 40.47084801 -0.01465673 C41.83520198 -0.0156161 43.19955594 -0.01658874 44.5639099 -0.0175745 C57.30008755 -0.02608991 70.0362 -0.01635551 82.77236695 -0.0001734 C93.65215095 0.01322317 104.53183883 0.01089962 115.41162109 -0.00292969 C128.10675811 -0.0190594 140.80183823 -0.02526309 153.49698406 -0.0160929 C154.85607818 -0.01513745 156.2151723 -0.01419433 157.57426643 -0.0132637 C158.57679489 -0.01256946 158.57679489 -0.01256946 159.59957645 -0.0118612 C164.26322531 -0.00929312 168.92683647 -0.01374506 173.59048271 -0.02070236 C179.89197539 -0.02944827 186.19328885 -0.02321259 192.49476242 -0.00601959 C194.7902999 -0.00209493 197.0858528 -0.00311857 199.3813839 -0.00980759 C210.34064866 -0.03876714 221.11025066 0.19627346 231.97840881 1.70932007 C232.80148763 1.82343251 233.62456645 1.93754495 234.47258705 2.05511534 C258.31857277 5.7824453 280.78723513 19.57144953 295.13500977 38.95068359 C311.43731737 63.32832032 314.0446238 89.1782753 313.96069336 117.83740234 C313.96477007 120.21033976 313.97011805 122.58327527 313.97662354 124.95620728 C313.99017224 131.33638387 313.98505044 137.71641314 313.97548628 144.09659195 C313.9709239 148.09617033 313.97117466 152.09572804 313.97395706 156.0953064 C313.97441676 156.76358607 313.97487646 157.43186574 313.97535009 158.12039632 C313.97630947 159.47887175 313.97728211 160.83734718 313.97826786 162.1958226 C313.98678012 174.87239318 313.97705354 187.5488982 313.96086676 200.22545803 C313.94746739 211.05349567 313.94979666 221.88143675 313.96362305 232.70947266 C313.97975306 245.34711826 313.98595654 257.98470672 313.97678626 270.62236118 C313.97583082 271.97526104 313.9748877 273.32816091 313.97395706 274.68106079 C313.97349424 275.346354 313.97303141 276.01164721 313.97255456 276.69710082 C313.9699868 281.33872103 313.97443774 285.98030295 313.98139572 290.62191772 C313.99014191 296.89305527 313.98390547 303.16401273 313.96671295 309.43513107 C313.96278861 311.71938149 313.96381136 314.0036474 313.97050095 316.28789139 C314.0498424 346.16320503 310.45893264 375.40186901 289.57250977 398.38818359 C288.76168945 399.29181641 287.95086914 400.19544922 287.11547852 401.12646484 C277.5679238 411.23317357 266.47556807 418.19424253 253.57250977 423.38818359 C252.83129883 423.69498047 252.09008789 424.00177734 251.32641602 424.31787109 C243.58691057 427.39026456 236.4012708 427.53676231 228.19468689 427.53535461 C226.46728762 427.54086965 226.46728762 427.54086965 224.7049914 427.54649609 C221.51699361 427.55559307 218.32902608 427.56022604 215.14101756 427.5628854 C211.69911636 427.56680101 208.25722988 427.57637838 204.81533813 427.58509827 C196.50773437 427.60482652 188.20012945 427.61492392 179.89250812 427.62382606 C175.975651 427.62821462 172.05879522 427.63357993 168.14193916 427.63881493 C155.1137708 427.655823 142.08560326 427.67031609 129.0574255 427.67756367 C125.67939694 427.6794734 122.30136838 427.68139376 118.92333984 427.68334961 C118.08379891 427.68383335 117.24425797 427.68431709 116.3792764 427.68481549 C102.78605961 427.69311188 89.19293093 427.71844406 75.5997526 427.75093029 C61.62915481 427.78404507 47.65860173 427.80201639 33.6879645 427.80520791 C25.84993907 427.80736883 18.01204216 427.81605624 10.1740551 427.84166908 C3.49762649 427.86343651 -3.17864236 427.87139692 -9.85510243 427.8617023 C-13.25737613 427.85717498 -16.6590549 427.86115875 -20.06132698 427.87846375 C-23.76141972 427.89622521 -27.46068758 427.88905441 -31.16078186 427.87593079 C-32.74954993 427.89238466 -32.74954993 427.89238466 -34.37041432 427.90917093 C-45.11970755 427.81766303 -55.05671702 424.56817578 -64.55249023 419.63818359 C-65.22497803 419.29311768 -65.89746582 418.94805176 -66.59033203 418.5925293 C-88.34690475 407.14648812 -103.23815857 388.32019937 -111.4989109 365.41773033 C-112.95284163 360.16779708 -112.70985156 354.81492456 -112.69491577 349.40762329 C-112.69944688 348.20334446 -112.703978 346.99906564 -112.70864642 345.75829351 C-112.71909556 342.4279484 -112.7206199 339.09781974 -112.71825767 335.7674737 C-112.71784867 332.17092 -112.72889647 328.57439823 -112.7383728 324.9778595 C-112.75496502 317.93656085 -112.76048152 310.89529569 -112.76159756 303.85397913 C-112.76254876 298.12958044 -112.76666265 292.40519278 -112.77299881 286.68079758 C-112.79060541 270.44316911 -112.79983845 254.20556705 -112.79833786 237.96792896 C-112.79825795 237.0930876 -112.79817804 236.21824624 -112.7980957 235.31689453 C-112.79801394 234.44098248 -112.79793218 233.56507042 -112.79784794 232.66261558 C-112.79703493 218.46536975 -112.81617785 204.26822999 -112.84437244 190.07101484 C-112.87310881 175.48567215 -112.88691236 160.90038119 -112.88518488 146.31500947 C-112.8845213 138.12949223 -112.8899998 129.94408623 -112.91154099 121.75859451 C-112.92976258 114.79001869 -112.93409204 107.82160454 -112.92052214 100.8530152 C-112.9139977 97.29942078 -112.91385594 93.74613645 -112.93122864 90.19257164 C-112.94988934 86.3358084 -112.93739125 82.47949654 -112.92196655 78.62271118 C-112.93739724 76.94745218 -112.93739724 76.94745218 -112.95313966 75.23834956 C-112.89243993 68.36689614 -111.70188567 63.41726558 -108.42749023 57.38818359 C-107.81578591 56.13213312 -107.20712931 54.87458763 -106.60327148 53.61474609 C-94.9251389 30.7197469 -75.88134716 13.50814932 -51.48999023 5.26318359 C-34.56753764 0.43793271 -17.48428989 -0.05089856 0 0 Z M99.17797852 164.22412109 C98.02629921 165.72775786 96.88742476 167.24126895 95.76000977 168.76318359 C94.84880371 169.95234375 94.84880371 169.95234375 93.91918945 171.16552734 C91.07769868 174.90220017 88.34339485 178.67170716 85.79516602 182.61474609 C79.7689851 191.87144497 79.7689851 191.87144497 75.87719727 193.55224609 C73.19750977 194.01318359 73.19750977 194.01318359 70.70922852 194.18115234 C68.32497734 194.22403522 68.32497734 194.22403522 66.01000977 196.32568359 C64.40364923 198.42306943 64.40364923 198.42306943 63.57250977 201.38818359 C67.16350312 202.63121976 69.88919934 202.06934374 73.57250977 201.38818359 C73.03110352 202.54833984 73.03110352 202.54833984 72.47875977 203.73193359 C69.73066143 209.89988763 67.80593013 214.61673016 68.57250977 221.38818359 C68.90250977 221.71818359 69.23250977 222.04818359 69.57250977 222.38818359 C71.6472868 222.32377441 71.6472868 222.32377441 74.01000977 222.01318359 C74.8130957 221.92294922 75.61618164 221.83271484 76.44360352 221.73974609 C78.61855109 221.48829119 78.61855109 221.48829119 80.57250977 220.38818359 C80.93457585 217.73914316 81.01644861 215.11322074 81.13110352 212.44287109 C81.57250977 209.38818359 81.57250977 209.38818359 84.57250977 202.38818359 C95.95750977 201.39818359 95.95750977 201.39818359 107.57250977 200.38818359 C108.23250977 204.01818359 108.89250977 207.64818359 109.57250977 211.38818359 C111.94693321 217.36781396 111.94693321 217.36781396 116.57250977 221.38818359 C120.40354018 221.06893106 122.33931529 220.54364657 125.57250977 218.38818359 C125.16910353 215.56433993 124.71116267 213.60420634 123.15844727 211.18505859 C121.26624795 207.84807655 120.35478167 204.53171003 119.51000977 200.82568359 C119.34082031 200.09115967 119.17163086 199.35663574 118.99731445 198.59985352 C116.22658883 185.86866292 115.25153275 172.85423812 115.59985352 159.84521484 C115.85946869 157.44207777 115.85946869 157.44207777 114.57250977 156.38818359 C107.96048751 155.41582738 103.13002809 159.40374845 99.17797852 164.22412109 Z M-70.30249023 172.32568359 C-76.95440356 180.5672653 -77.45172028 187.89551579 -76.42749023 198.38818359 C-74.08594569 206.57100056 -67.82341032 212.51650767 -60.98999023 217.20068359 C-60.38743408 217.6230127 -59.78487793 218.0453418 -59.1640625 218.48046875 C-53.70690681 222.27312481 -48.11682285 225.85220871 -42.48608398 229.38037109 C-37.34259729 232.75681064 -33.22063515 235.80189376 -30.42749023 241.38818359 C-29.56432336 245.78517043 -29.55573322 249.58922213 -31.53295898 253.66943359 C-35.5282049 259.41059127 -40.49520467 262.98614831 -47.42749023 264.38818359 C-54.31060603 265.10224833 -59.70534574 264.43749698 -65.42749023 260.38818359 C-68.8846013 257.02450796 -70.25032898 253.58228165 -71.61889648 249.06005859 C-71.88573242 248.50833984 -72.15256836 247.95662109 -72.42749023 247.38818359 C-73.41749023 247.05818359 -74.40749023 246.72818359 -75.42749023 246.38818359 C-79.08361676 250.54860343 -82.56089184 254.85910472 -82.34155273 260.66162109 C-81.40568377 265.9766505 -79.78038911 269.00259558 -75.42749023 272.38818359 C-66.94831652 277.99660567 -58.77100681 278.59877836 -48.84545898 276.70458984 C-37.17806213 273.65817311 -26.66243567 267.70962866 -20.07592773 257.23974609 C-15.82442742 249.01202246 -14.67191812 239.5797867 -17.22827148 230.56396484 C-23.4884783 216.86035062 -37.17664137 209.5104069 -49.43530273 201.89599609 C-50.07443604 201.49509766 -50.71356934 201.09419922 -51.37207031 200.68115234 C-52.58719469 199.92136212 -53.80816274 199.17081234 -55.03564453 198.43115234 C-58.20150268 196.45859708 -60.31551531 195.01745146 -61.42749023 191.38818359 C-62.09823229 186.22502961 -62.01968358 181.74529334 -59.92749023 176.95068359 C-54.98356011 171.88315522 -50.45015162 170.15420968 -43.36499023 169.88818359 C-37.92417719 170.06724833 -34.75485017 171.11862275 -30.42749023 174.38818359 C-29.93249023 175.37818359 -29.93249023 175.37818359 -29.42749023 176.38818359 C-28.10749023 176.38818359 -26.78749023 176.38818359 -25.42749023 176.38818359 C-23.68233489 170.50587654 -23.68233489 170.50587654 -24.11499023 164.51318359 C-26.2229672 161.10026851 -27.57695643 159.67169486 -31.42749023 158.38818359 C-46.64889467 157.15182451 -59.7888396 160.97796464 -70.30249023 172.32568359 Z M161.49047852 186.08349609 C160.82121338 186.64149902 160.15194824 187.19950195 159.46240234 187.77441406 C158.25809871 188.80276273 157.07515115 189.85705652 155.92285156 190.94335938 C153.48870692 193.1903225 152.12292622 194.3561205 148.75610352 194.55224609 C147.84989258 194.37435547 146.94368164 194.19646484 146.01000977 194.01318359 C141.650911 193.36480075 141.650911 193.36480075 137.44750977 194.63818359 C135.32238588 196.34226868 135.32238588 196.34226868 134.57250977 199.38818359 C136.06994095 200.88561478 137.56075216 200.72021053 139.63500977 200.95068359 C140.93438477 201.09505859 142.23375977 201.23943359 143.57250977 201.38818359 C143.17418945 201.90767578 142.77586914 202.42716797 142.36547852 202.96240234 C136.00942629 210.7650608 136.00942629 210.7650608 134.57250977 220.38818359 C137.48959901 222.37180428 138.6963188 222.37580269 142.32250977 222.01318359 C143.39500977 221.80693359 144.46750977 221.60068359 145.57250977 221.38818359 C145.80325195 220.73591797 146.03399414 220.08365234 146.27172852 219.41162109 C148.3207495 213.92056882 150.07360631 209.25933308 154.57250977 205.38818359 C159.465077 205.78197559 164.21980873 206.90140146 169.01000977 207.95068359 C170.2462207 208.22009766 171.48243164 208.48951172 172.75610352 208.76708984 C173.68551758 208.97205078 174.61493164 209.17701172 175.57250977 209.38818359 C175.62858398 210.89058594 175.62858398 210.89058594 175.68579102 212.42333984 C175.72921074 223.19955815 175.72921074 223.19955815 180.57250977 232.38818359 C185.89924013 232.72675188 185.89924013 232.72675188 190.57250977 230.38818359 C190.42668457 229.78087402 190.28085937 229.17356445 190.13061523 228.54785156 C188.76049917 222.3923776 188.33013318 216.79719334 188.69750977 210.51318359 C188.74464111 209.61913818 188.79177246 208.72509277 188.84033203 207.80395508 C189.53209622 197.17611088 191.20049022 186.2251811 194.70141602 176.13427734 C195.5751065 173.37999746 195.74119049 171.25575599 195.57250977 168.38818359 C181.40224319 166.45168296 171.59113922 177.60331888 161.49047852 186.08349609 Z M201.63500977 185.32568359 C199.46124666 188.55339245 198.74403632 190.52883603 198.57250977 194.38818359 C198.90250977 195.37818359 199.23250977 196.36818359 199.57250977 197.38818359 C203.45614039 196.80384102 205.61112884 194.9470916 208.57250977 192.45068359 C211.49505095 189.99592721 214.1346661 188.02670131 217.57250977 186.38818359 C216.00783753 193.27674059 214.11890065 200.01134865 211.90844727 206.71630859 C211.66942688 207.44136597 211.43040649 208.16642334 211.18414307 208.91345215 C210.18969788 211.91681009 209.1890963 214.91805209 208.18286133 217.91748047 C207.43914421 220.14001734 206.70459675 222.36543166 205.97094727 224.59130859 C205.74490814 225.25608215 205.51886902 225.92085571 205.28598022 226.60577393 C203.53877939 231.93005892 201.63968439 237.76461223 203.57250977 243.20068359 C207.09506428 247.05347759 211.22122088 248.24233019 216.26391602 248.78662109 C235.52832395 248.66998492 253.48534913 244.05689434 267.82250977 230.57568359 C275.1764112 222.88485042 278.53676221 214.42267205 278.88500977 203.88818359 C278.68374061 195.78150939 276.27365742 190.18794225 270.69750977 184.27490234 C260.1725043 174.9300905 245.88132462 172.69481648 232.19360352 173.03662109 C220.88661746 174.13438673 209.60645046 176.74966734 201.63500977 185.32568359 Z M-11.42749023 170.38818359 C-12.74985047 174.35526431 -11.70759389 175.78654337 -10.17749023 179.63818359 C-3.38298477 197.75060189 -1.77379042 218.14035571 -2.42749023 237.38818359 C0.54088689 238.69426953 1.88075299 238.30183421 5.07250977 237.40771484 C9.25485666 235.43358469 10.79864166 232.17726945 12.57250977 228.07568359 C13.23872215 226.64187868 13.90539881 225.2082894 14.57250977 223.77490234 C14.9012207 223.04835449 15.22993164 222.32180664 15.56860352 221.57324219 C17.14876652 218.13392825 18.86265904 214.76434717 20.57250977 211.38818359 C21.15000977 210.23318359 21.72750977 209.07818359 22.32250977 207.88818359 C22.73500977 207.06318359 23.14750977 206.23818359 23.57250977 205.38818359 C23.639823 206.23413086 23.639823 206.23413086 23.70849609 207.09716797 C23.922082 209.69530882 24.15343128 212.29158705 24.38500977 214.88818359 C24.45526367 215.77505859 24.52551758 216.66193359 24.59790039 217.57568359 C25.12723172 223.33480842 26.1246211 228.12492661 28.57250977 233.38818359 C32.32707543 235.89122737 34.11996911 235.84098434 38.57250977 235.38818359 C51.40993277 229.10604042 57.03582763 214.87453501 61.74047852 202.25537109 C63.53844848 196.19460848 63.88482466 190.17184975 64.01000977 183.88818359 C64.03256836 183.10967041 64.05512695 182.33115723 64.07836914 181.52905273 C64.0628819 177.98518496 63.86768882 175.80716843 61.80297852 172.87646484 C58.20395264 170.47501325 55.82914441 171.04490661 51.57250977 171.38818359 C50.91250977 171.71818359 50.25250977 172.04818359 49.57250977 172.38818359 C50.13990845 176.51791987 50.13990845 176.51791987 51.57250977 180.38818359 C52.99133522 195.14396833 51.6412844 209.30881654 43.13500977 221.81396484 C41.32384787 223.63871045 40.08361906 224.01476432 37.57250977 224.38818359 C33.94048644 211.48152926 35.26875691 197.516838 36.54907227 184.32958984 C36.8492396 181.19519006 36.8492396 181.19519006 34.57250977 178.38818359 C30.98893735 178.13802487 30.98893735 178.13802487 27.57250977 178.38818359 C20.95422804 190.4669389 15.08003591 202.76553971 9.57250977 215.38818359 C8.02927879 213.84495262 8.21117685 212.21948828 7.95922852 210.07568359 C7.84772461 209.17261475 7.7362207 208.2695459 7.62133789 207.33911133 C7.50209961 206.36530518 7.38286133 205.39149902 7.26000977 204.38818359 C6.31802385 197.12743665 5.23071892 189.95989495 3.57250977 182.82568359 C3.4187085 182.143125 3.26490723 181.46056641 3.10644531 180.75732422 C2.15674813 176.85820499 0.98107302 173.61771076 -1.42749023 170.38818359 C-4.92797628 169.34548562 -8.0212143 168.87428318 -11.42749023 170.38818359 Z M7.82250977 246.95068359 C7.14978027 247.20696533 6.47705078 247.46324707 5.78393555 247.72729492 C0.9426096 249.75758912 -1.47435888 252.18955219 -4.42749023 256.38818359 C-4.42749023 257.04818359 -4.42749023 257.70818359 -4.42749023 258.38818359 C2.15923256 259.50405193 6.80833154 258.10589337 12.51000977 254.82568359 C26.51021367 246.81019012 41.71885328 242.1319344 57.57250977 239.38818359 C58.5526001 239.21158203 59.53269043 239.03498047 60.54248047 238.85302734 C70.74718681 237.18731706 80.81508943 236.98957995 91.13500977 237.01318359 C92.03269073 237.01372742 92.9303717 237.01427124 93.85525513 237.01483154 C110.03943841 237.05965662 125.65091604 238.30406903 141.57250977 241.38818359 C142.65419434 241.59717285 143.73587891 241.80616211 144.8503418 242.02148438 C179.29170234 248.91388676 212.54771178 261.34847571 244.88354492 274.86035156 C252.70779132 278.11772864 259.61557459 280.67711649 268.19750977 280.82568359 C269.46852539 280.86564453 270.73954102 280.90560547 272.04907227 280.94677734 C276.46601331 280.24653059 277.89382103 278.90585786 280.57250977 275.38818359 C281.28114378 269.80769075 280.7662059 266.1787278 277.57250977 261.38818359 C275.52157832 259.98351406 275.52157832 259.98351406 273.57250977 259.38818359 C273.49000977 260.01208984 273.40750977 260.63599609 273.32250977 261.27880859 C272.57250977 263.38818359 272.57250977 263.38818359 270.82250977 264.43505859 C253.87129635 269.73231279 236.54243694 262.69628394 220.38500977 257.32568359 C218.61106165 256.74379372 216.83697121 256.16233758 215.06274414 255.58129883 C204.83028045 252.21484591 194.6842795 248.66244385 184.57250977 244.95068359 C128.20068861 224.39169296 63.80709092 224.9173626 7.82250977 246.95068359 Z " fill="#D9301F" transform="translate(112.427490234375,1.61181640625)"/>
<path d="M0 0 C5.00424993 4.14144822 8.12811457 8.75137049 9.12890625 15.234375 C9.49685751 24.3975484 7.28797438 32.60090774 1.4375 39.75 C-5.97710955 47.46434909 -14.71948359 51.43493413 -25.40625 51.67260742 C-26.1178125 51.67752197 -26.829375 51.68243652 -27.5625 51.6875 C-28.24828125 51.69305908 -28.9340625 51.69861816 -29.640625 51.7043457 C-33.62276209 51.64747192 -36.72661753 51.11929554 -40.3125 49.375 C-39.74992053 43.47603572 -38.5106824 38.30359513 -36.58984375 32.7109375 C-36.04618668 31.07813741 -35.50256803 29.44532453 -34.95898438 27.8125 C-34.10334717 25.27290382 -33.24469661 22.73435165 -32.38452148 20.19628906 C-31.54968522 17.72443015 -30.72566086 15.24915245 -29.90234375 12.7734375 C-29.5133213 11.64353897 -29.5133213 11.64353897 -29.11643982 10.49081421 C-27.72929749 6.30931872 -27.02027958 2.84337197 -27.3125 -1.625 C-30.6125 -1.625 -33.9125 -1.625 -37.3125 -1.625 C-28.65328185 -10.28421815 -9.32610463 -6.24051611 0 0 Z " fill="#D63020" transform="translate(369.3125,189.625)"/>
<path d="M0 0 C1.31052767 4.30422506 0.45785552 7.9370534 -0.4375 12.25 C-0.65889648 13.36761719 -0.65889648 13.36761719 -0.88476562 14.5078125 C-1.2488694 16.34007665 -1.62341409 18.17026053 -2 20 C-7.50846923 19.357731 -12.64235597 18.43508322 -18 17 C-14.9571992 9.56204248 -6.71211955 4.06259868 0 0 Z " fill="#CE3424" transform="translate(292,183)"/>
<path d="M0 0 C0.66 0 1.32 0 2 0 C3.6498007 3.29960141 3.38258361 6.99127884 3.5625 10.625 C3.60568359 11.42679688 3.64886719 12.22859375 3.69335938 13.0546875 C3.79951457 15.0362511 3.90026855 17.01810271 4 19 C0.57767028 20.14077657 -2.08673217 20.09815117 -5.6875 20.0625 C-7.45673828 20.04896484 -7.45673828 20.04896484 -9.26171875 20.03515625 C-10.16535156 20.02355469 -11.06898438 20.01195312 -12 20 C-10.57523156 14.7380711 -8.16701816 10.95929056 -5 6.625 C-4.54882812 5.98433594 -4.09765625 5.34367188 -3.6328125 4.68359375 C-2.47763446 3.08069878 -1.24448754 1.53458767 0 0 Z " fill="#D72E1E" transform="translate(214,175)"/>
<path d="M0 0 C0.53625 0.78375 1.0725 1.5675 1.625 2.375 C5.64823603 6.82173456 10.49485021 7.21638797 16.21484375 7.53125 C17.28412109 7.57765625 17.28412109 7.57765625 18.375 7.625 C19.11105469 7.66367188 19.84710938 7.70234375 20.60546875 7.7421875 C22.40327406 7.83557998 24.20160108 7.9188371 26 8 C26 8.33 26 8.66 26 9 C21.05 9.33 16.1 9.66 11 10 C10.67 11.32 10.34 12.64 10 14 C12.475 14.495 12.475 14.495 15 15 C11.33193602 16.22268799 10.2553473 15.63313577 6.67578125 14.34765625 C5.64775391 13.98349609 4.61972656 13.61933594 3.56054688 13.24414062 C2.48869141 12.85419922 1.41683594 12.46425781 0.3125 12.0625 C-0.77095703 11.67642578 -1.85441406 11.29035156 -2.97070312 10.89257812 C-5.65015346 9.9364747 -8.3262844 8.97200143 -11 8 C-11 7.67 -11 7.34 -11 7 C-7.7 6.67 -4.4 6.34 -1 6 C-0.67 4.02 -0.34 2.04 0 0 Z " fill="#C3372A" transform="translate(315,242)"/>
<path d="M0 0 C0.33 0 0.66 0 1 0 C1.33 2.97 1.66 5.94 2 9 C4.91652174 9.16681109 4.91652174 9.16681109 8 9 C8.66 8.34 9.32 7.68 10 7 C12.625 6.875 12.625 6.875 15 7 C11.66666667 9.66666667 8.33333333 12.33333333 5 15 C5 14.34 5 13.68 5 13 C2.69 13.33 0.38 13.66 -2 14 C-2.33 16.64 -2.66 19.28 -3 22 C-3.66 22 -4.32 22 -5 22 C-5 27.61 -5 33.22 -5 39 C-5.66 39 -6.32 39 -7 39 C-7.60080447 31.72359036 -6.60448676 24.9236258 -5.1875 17.8125 C-5.02217773 16.96977539 -4.85685547 16.12705078 -4.68652344 15.25878906 C-3.57784199 9.93670054 -2.03013864 5.04335302 0 0 Z " fill="#C43728" transform="translate(308,173)"/>
<path d="M0 0 C1.04077698 0.00007553 2.08155396 0.00015106 3.15386963 0.00022888 C4.27066101 0.00539017 5.38745239 0.01055145 6.53808594 0.01586914 C7.68662048 0.01728409 8.83515503 0.01869904 10.01849365 0.02015686 C13.68650925 0.02575396 17.35446379 0.03830596 21.02246094 0.05102539 C23.50943922 0.05604076 25.99641846 0.06060361 28.48339844 0.06469727 C34.57977343 0.07572244 40.67611282 0.0924577 46.77246094 0.11352539 C46.77246094 0.77352539 46.77246094 1.43352539 46.77246094 2.11352539 C45.64042236 2.10305176 44.50838379 2.09257812 43.34204102 2.08178711 C15.92127713 1.65381017 15.92127713 1.65381017 -11.39160156 3.67602539 C-15.07933039 4.09662175 -18.52631489 4.19124138 -22.22753906 4.11352539 C-22.22753906 3.12352539 -22.22753906 2.13352539 -22.22753906 1.11352539 C-21.33550781 1.12512695 -20.44347656 1.13672852 -19.52441406 1.14868164 C-17.76871094 1.1622168 -17.76871094 1.1622168 -15.97753906 1.17602539 C-14.23730469 1.19342773 -14.23730469 1.19342773 -12.46191406 1.21118164 C-9.42541464 1.2424366 -9.42541464 1.2424366 -7.35211182 0.61451721 C-4.84138961 0.02246816 -2.57985361 -0.00626178 0 0 Z " fill="#B93D31" transform="translate(193.2275390625,230.886474609375)"/>
<path d="M0 0 C-0.44947998 8.54011956 -3.14908583 16.01533633 -6 24 C-6.33 24 -6.66 24 -7 24 C-6.505 19.545 -6.505 19.545 -6 15 C-7.32 15.33 -8.64 15.66 -10 16 C-9.67 14.35 -9.34 12.7 -9 11 C-7.35 10.67 -5.7 10.34 -4 10 C-4.33 8.35 -4.66 6.7 -5 5 C-5.99 4.67 -6.98 4.34 -8 4 C-2.25 0 -2.25 0 0 0 Z " fill="#C83526" transform="translate(330,188)"/>
<path d="M0 0 C0.66 0.99 1.32 1.98 2 3 C1.34 3.66 0.68 4.32 0 5 C0 5.33 0 5.66 0 6 C3.3 6.33 6.6 6.66 10 7 C10 7.33 10 7.66 10 8 C-2.87 10.475 -2.87 10.475 -16 13 C-16.33 11.68 -16.66 10.36 -17 9 C-16.443125 8.93683594 -15.88625 8.87367188 -15.3125 8.80859375 C-8.51620206 7.71797161 -4.76426847 4.85514008 0 0 Z " fill="#C0342A" transform="translate(161,228)"/>
<path d="M0 0 C0 4 0 8 0 12 C2.31 12 4.62 12 7 12 C7.33 10.68 7.66 9.36 8 8 C8 9.65 8 11.3 8 13 C4.57767028 14.14077657 1.91326783 14.09815117 -1.6875 14.0625 C-3.45673828 14.04896484 -3.45673828 14.04896484 -5.26171875 14.03515625 C-6.16535156 14.02355469 -7.06898438 14.01195312 -8 14 C-6.8081333 9.96153905 -5.49149709 6.92406155 -2.875 3.625 C-2.33617187 2.93664062 -1.79734375 2.24828125 -1.2421875 1.5390625 C-0.62730469 0.77722656 -0.62730469 0.77722656 0 0 Z " fill="#BE392F" transform="translate(210,181)"/>
<path d="M0 0 C-0.61875 0.2475 -1.2375 0.495 -1.875 0.75 C-4.35068687 2.20628639 -4.95125002 3.37812506 -6 6 C-2.52176885 7.15941038 -0.54104422 6.70820884 3 6 C3.33 6.66 3.66 7.32 4 8 C3.06553465 10.03144641 2.06775224 12.03533587 1 14 C0.67 14 0.34 14 0 14 C0 12.35 0 10.7 0 9 C-0.94875 9.020625 -1.8975 9.04125 -2.875 9.0625 C-6 9 -6 9 -8 8 C-8.19916016 8.85851562 -8.19916016 8.85851562 -8.40234375 9.734375 C-8.99380317 11.97650875 -9.73288854 14.08579619 -10.5625 16.25 C-10.83191406 16.95640625 -11.10132813 17.6628125 -11.37890625 18.390625 C-11.58386719 18.92171875 -11.78882813 19.4528125 -12 20 C-12.66 20 -13.32 20 -14 20 C-13.81824219 19.47792969 -13.63648438 18.95585937 -13.44921875 18.41796875 C-11.37440957 12.34250187 -9.63584831 6.20694217 -8 0 C-4.71303767 -0.79953138 -3.28976808 -1.09658936 0 0 Z " fill="#B83B30" transform="translate(183,196)"/>
<path d="M0 0 C0.66 0 1.32 0 2 0 C2.33 6.6 2.66 13.2 3 20 C3.66 20 4.32 20 5 20 C5.103125 20.639375 5.20625 21.27875 5.3125 21.9375 C5.6528125 22.9584375 5.6528125 22.9584375 6 24 C6.99 24.33 7.98 24.66 9 25 C7.1875 26.5625 7.1875 26.5625 5 28 C4.01 27.67 3.02 27.34 2 27 C-0.46456257 18.04395567 -0.1920743 9.19822505 0 0 Z " fill="#B9392F" transform="translate(147,199)"/>
<path d="M0 0 C-0.99 0 -1.98 0 -3 0 C-3 0.66 -3 1.32 -3 2 C-4.98 2.33 -6.96 2.66 -9 3 C-9.33 2.01 -9.66 1.02 -10 0 C-6.33694766 -0.74926071 -3.57644848 -1.2380014 0 0 Z M-13 3 C-11.68 3.66 -10.36 4.32 -9 5 C-9.33 7.64 -9.66 10.28 -10 13 C-11.4391134 12.71640113 -12.87625518 12.42278601 -14.3125 12.125 C-15.11300781 11.96257812 -15.91351563 11.80015625 -16.73828125 11.6328125 C-19 11 -19 11 -22 9 C-19.36 9 -16.72 9 -14 9 C-14.20625 8.38125 -14.4125 7.7625 -14.625 7.125 C-14.74875 6.42375 -14.8725 5.7225 -15 5 C-14.34 4.34 -13.68 3.68 -13 3 Z " fill="#CB3727" transform="translate(352,249)"/>
<path d="M0 0 C0.33 0.66 0.66 1.32 1 2 C0.67 2.99 0.34 3.98 0 5 C-0.06665376 6.39439664 -0.08538199 7.79169875 -0.0625 9.1875 C-0.041875 10.445625 -0.02125 11.70375 0 13 C5.445 12.505 5.445 12.505 11 12 C10.67 12.99 10.34 13.98 10 15 C5.38 15.33 0.76 15.66 -4 16 C-4.86988854 11.65055731 -5.03595522 10.02871475 -4 6 C-4.66 5.67 -5.32 5.34 -6 5 C-5.01 4.01 -4.02 3.02 -3 2 C-2.67 2.33 -2.34 2.66 -2 3 C-1.34 2.01 -0.68 1.02 0 0 Z " fill="#CA3526" transform="translate(182,210)"/>
<path d="M0 0 C0.33 0.99 0.66 1.98 1 3 C-0.98 3.33 -2.96 3.66 -5 4 C-5 4.66 -5 5.32 -5 6 C-6.051875 6.4125 -7.10375 6.825 -8.1875 7.25 C-11.58704057 8.69411378 -14.21424307 10.55191058 -17 13 C-16.67 13.99 -16.34 14.98 -16 16 C-18.64738916 17.4606285 -19.89448334 18 -23 18 C-23.66 17.67 -24.32 17.34 -25 17 C-17.36838559 9.8915932 -9.80657966 3.75571136 0 0 Z " fill="#C33929" transform="translate(51,11)"/>
<path d="M0 0 C2.64 0 5.28 0 8 0 C8 0.33 8 0.66 8 1 C5.36 1.33 2.72 1.66 0 2 C0.66 4.97 1.32 7.94 2 11 C0.68 10.67 -0.64 10.34 -2 10 C-2.33 12.97 -2.66 15.94 -3 19 C-5.57736975 13.84526051 -4.6754534 11.30102469 -3 6 C-1.375 2.4375 -1.375 2.4375 0 0 Z " fill="#C4372B" transform="translate(197,203)"/>
<path d="M0 0 C0.33 0 0.66 0 1 0 C1.04898438 0.60328125 1.09796875 1.2065625 1.1484375 1.828125 C1.22320312 2.62734375 1.29796875 3.4265625 1.375 4.25 C1.44460937 5.03890625 1.51421875 5.8278125 1.5859375 6.640625 C2.02541008 9.14478952 2.61427885 10.86957156 4 13 C4.99 13.33 5.98 13.66 7 14 C8.12516085 12.16715557 8.12516085 12.16715557 9 10 C8.67 9.01 8.34 8.02 8 7 C9.32 6.34 10.64 5.68 12 5 C11.56179109 9.55737263 11.14958831 12.57653445 8 16 C8.33 16.66 8.66 17.32 9 18 C5.6470016 16.82191948 3.2447471 15.80593388 1 13 C-0.00496852 9.98509443 -0.10335303 7.95818308 -0.0625 4.8125 C-0.05347656 3.91144531 -0.04445312 3.01039063 -0.03515625 2.08203125 C-0.02355469 1.39496094 -0.01195312 0.70789063 0 0 Z " fill="#CA352C" transform="translate(50,183)"/>
<path d="M0 0 C1.45823212 -0.0270043 2.91660675 -0.04639787 4.375 -0.0625 C5.18710937 -0.07410156 5.99921875 -0.08570313 6.8359375 -0.09765625 C9 0 9 0 11 1 C13.71262116 1.2322646 16.40773126 1.41936235 19.125 1.5625 C20.25615234 1.62727539 20.25615234 1.62727539 21.41015625 1.69335938 C23.27321888 1.7994832 25.13658524 1.90025001 27 2 C27 1.34 27 0.68 27 0 C28.32 0.33 29.64 0.66 31 1 C20.62185155 6.29948006 10.88592225 3.4095322 0 1 C0 0.67 0 0.34 0 0 Z " fill="#BA3C31" transform="translate(352,265)"/>
<path d="M0 0 C0.69287109 0.00451172 1.38574219 0.00902344 2.09960938 0.01367188 C3.79561068 0.02536844 5.49156703 0.04330076 7.1875 0.0625 C7.1875 0.3925 7.1875 0.7225 7.1875 1.0625 C3.5575 1.3925 -0.0725 1.7225 -3.8125 2.0625 C-3.8125 4.7025 -3.8125 7.3425 -3.8125 10.0625 C-5.8125 6.3125 -5.8125 6.3125 -5.8125 4.0625 C-9.1125 4.0625 -12.4125 4.0625 -15.8125 4.0625 C-11.08765576 -0.66234424 -6.40904394 -0.07972973 0 0 Z " fill="#C24138" transform="translate(347.8125,183.9375)"/>
<path d="M0 0 C0.66 0 1.32 0 2 0 C2 3.96 2 7.92 2 12 C4.1346875 11.5978125 4.1346875 11.5978125 6.3125 11.1875 C7.11300781 11.03667969 7.91351563 10.88585937 8.73828125 10.73046875 C11.23445587 9.92427764 12.32422106 8.97947998 14 7 C14 8.32 14 9.64 14 11 C13.34 11 12.68 11 12 11 C12 11.66 12 12.32 12 13 C9.6203388 14.1898306 8.08514265 14.13349966 5.4375 14.125 C4.22900391 14.12886719 4.22900391 14.12886719 2.99609375 14.1328125 C1 14 1 14 0 13 C-0.07258946 10.81360547 -0.08373783 8.62499611 -0.0625 6.4375 C-0.05347656 5.23996094 -0.04445313 4.04242188 -0.03515625 2.80859375 C-0.02355469 1.88175781 -0.01195313 0.95492187 0 0 Z " fill="#BC352B" transform="translate(109,227)"/>
<path d="M0 0 C0.99 0 1.98 0 3 0 C3.33 0.66 3.66 1.32 4 2 C4.99 2.66 5.98 3.32 7 4 C6.01 5.485 6.01 5.485 5 7 C4.25234375 6.59007812 3.5046875 6.18015625 2.734375 5.7578125 C1.25710938 4.94957031 1.25710938 4.94957031 -0.25 4.125 C-1.22453125 3.59132812 -2.1990625 3.05765625 -3.203125 2.5078125 C-5.45130408 1.29580534 -7.7072805 0.12452433 -10 -1 C-3.375 -2.25 -3.375 -2.25 0 0 Z " fill="#C6372A" transform="translate(376,178)"/>
<path d="M0 0 C0.99 0.495 0.99 0.495 2 1 C2 5.29 2 9.58 2 14 C2.66 14 3.32 14 4 14 C4 12.35 4 10.7 4 9 C4.66 9 5.32 9 6 9 C6 8.01 6 7.02 6 6 C6.66 6 7.32 6 8 6 C7.57405412 7.44096586 7.13373367 8.87768712 6.6875 10.3125 C6.44386719 11.11300781 6.20023437 11.91351563 5.94921875 12.73828125 C4.95817977 15.09964573 3.91925057 16.33879993 2 18 C0.414131 14.828262 0.62133555 11.36486178 0.4375 7.875 C0.39431641 7.12089844 0.35113281 6.36679688 0.30664062 5.58984375 C0.2005168 3.72678112 0.09974999 1.86341476 0 0 Z " fill="#B6392B" transform="translate(119,200)"/>
<path d="M0 0 C0.66 0.33 1.32 0.66 2 1 C0.35 4.63 -1.3 8.26 -3 12 C-3.99 12 -4.98 12 -6 12 C-6 12.66 -6 13.32 -6 14 C-6.99 14.33 -7.98 14.66 -9 15 C-9 12.69 -9 10.38 -9 8 C-7.68 8.33 -6.36 8.66 -5 9 C-4.67 8.34 -4.34 7.68 -4 7 C-3.34 7 -2.68 7 -2 7 C-1.855625 6.21625 -1.71125 5.4325 -1.5625 4.625 C-1 2 -1 2 0 0 Z " fill="#CA3527" transform="translate(131,194)"/>
<path d="M0 0 C4.66666667 0.66666667 9.33333333 1.33333333 14 2 C14 2.66 14 3.32 14 4 C15.98 4 17.96 4 20 4 C20 4.66 20 5.32 20 6 C20.99 6 21.98 6 23 6 C23 6.66 23 7.32 23 8 C18.04978591 7.20352971 13.41829847 5.54679293 8.6875 3.9375 C7.85154297 3.65583984 7.01558594 3.37417969 6.15429688 3.08398438 C4.10194376 2.39204818 2.05084517 1.69639291 0 1 C0 0.67 0 0.34 0 0 Z " fill="#BC3B2D" transform="translate(281,241)"/>
<path d="M0 0 C1.32 0.66 2.64 1.32 4 2 C0.04 7.94 0.04 7.94 -4 14 C-4.66 12.68 -5.32 11.36 -6 10 C-5.01 9.67 -4.02 9.34 -3 9 C-3.33 7.68 -3.66 6.36 -4 5 C-3.01 4.67 -2.02 4.34 -1 4 C-0.26676204 1.98491642 -0.26676204 1.98491642 0 0 Z " fill="#C33827" transform="translate(198,178)"/>
<path d="M0 0 C1.57216947 4.86249556 0.3550103 9.19088829 -1 14 C-2.5625 16.8125 -2.5625 16.8125 -4 19 C-4.70670728 21.69254991 -4.70670728 21.69254991 -5 24 C-5.66 23.67 -6.32 23.34 -7 23 C-4.97810834 15.21878058 -2.61369593 7.60227292 0 0 Z " fill="#BC3B30" transform="translate(342,194)"/>
<path d="M0 0 C4.67239145 2.13206212 8.59287819 4.02502456 12 8 C9.03 7.505 9.03 7.505 6 7 C6 6.34 6 5.68 6 5 C5.21625 5.20625 4.4325 5.4125 3.625 5.625 C2.75875 5.74875 1.8925 5.8725 1 6 C0.34 5.34 -0.32 4.68 -1 4 C-0.625 1.875 -0.625 1.875 0 0 Z " fill="#C73329" transform="translate(58,223)"/>
<path d="M0 0 C4.16971689 0.30886792 7.3407937 1.03337811 11 3 C10.36191406 3.12117187 9.72382813 3.24234375 9.06640625 3.3671875 C7.82697266 3.61855469 7.82697266 3.61855469 6.5625 3.875 C5.73878906 4.03742188 4.91507812 4.19984375 4.06640625 4.3671875 C3.38449219 4.57601562 2.70257813 4.78484375 2 5 C1.67 5.66 1.34 6.32 1 7 C0.34 6.67 -0.32 6.34 -1 6 C-0.67 5.34 -0.34 4.68 0 4 C-0.66 3.34 -1.32 2.68 -2 2 C-1.34 1.34 -0.68 0.68 0 0 Z " fill="#C53628" transform="translate(267,206)"/>
<path d="M0 0 C1 3 1 3 0.5 4.9375 C-0.07702481 7.31772734 0.25977147 8.69706679 1 11 C0.34 11 -0.32 11 -1 11 C-1.33 10.34 -1.66 9.68 -2 9 C-2.99 10.485 -2.99 10.485 -4 12 C-5.32 11.67 -6.64 11.34 -8 11 C-7.38511719 10.31164062 -7.38511719 10.31164062 -6.7578125 9.609375 C-6.21898438 8.99578125 -5.68015625 8.3821875 -5.125 7.75 C-4.59132813 7.14671875 -4.05765625 6.5434375 -3.5078125 5.921875 C-2.0202513 4.02581254 -0.99677564 2.18709995 0 0 Z " fill="#BF3326" transform="translate(93,255)"/>
<path d="M0 0 C1.32 0 2.64 0 4 0 C4.061875 0.61875 4.12375 1.2375 4.1875 1.875 C4.828919 4.27761141 4.828919 4.27761141 7.5625 5.25 C8.366875 5.4975 9.17125 5.745 10 6 C6.23331402 7.3805087 3.55210827 6.59568159 -0.25 5.5625 C-1.32765625 5.27503906 -2.4053125 4.98757812 -3.515625 4.69140625 C-4.74539063 4.34916016 -4.74539063 4.34916016 -6 4 C-6 3.67 -6 3.34 -6 3 C-3.69 3 -1.38 3 1 3 C0.67 2.01 0.34 1.02 0 0 Z " fill="#C53B2E" transform="translate(271,234)"/>
<path d="M0 0 C-1.32 0.33 -2.64 0.66 -4 1 C-3.855625 1.721875 -3.71125 2.44375 -3.5625 3.1875 C-3.04166667 5.79166667 -2.52083333 8.39583333 -2 11 C-4 9.25 -4 9.25 -6 7 C-6 5.68 -6 4.36 -6 3 C-6.99 3 -7.98 3 -9 3 C-9 3.66 -9 4.32 -9 5 C-9.66 5 -10.32 5 -11 5 C-10 2 -10 2 -7.75 0.8125 C-5.00208853 0.00061706 -2.84552111 -0.16260121 0 0 Z " fill="#C5352D" transform="translate(105,171)"/>
<path d="M0 0 C0 1.32 0 2.64 0 4 C0.99 4.33 1.98 4.66 3 5 C1 6 1 6 -1.6015625 5.22265625 C-3.09816406 4.64837891 -3.09816406 4.64837891 -4.625 4.0625 C-5.62789063 3.68222656 -6.63078125 3.30195313 -7.6640625 2.91015625 C-8.43492187 2.60980469 -9.20578125 2.30945313 -10 2 C-10 1.67 -10 1.34 -10 1 C-6.56484998 0.37542727 -3.50935186 0 0 0 Z " fill="#C23B30" transform="translate(314,248)"/>
<path d="M0 0 C0.66 0.33 1.32 0.66 2 1 C1.54625 1.4125 1.0925 1.825 0.625 2.25 C-1.09686822 3.92669589 -1.09686822 3.92669589 -2 6.125 C-3 8 -3 8 -6 9 C-8.1875 7.5625 -8.1875 7.5625 -10 6 C-9.36191406 5.65066406 -8.72382813 5.30132812 -8.06640625 4.94140625 C-7.24011719 4.48636719 -6.41382813 4.03132812 -5.5625 3.5625 C-4.73878906 3.11003906 -3.91507812 2.65757812 -3.06640625 2.19140625 C-1.07691202 1.16337603 -1.07691202 1.16337603 0 0 Z " fill="#C63428" transform="translate(373,237)"/>
<path d="M0 0 C0.99 0.33 1.98 0.66 3 1 C0.14723863 3.93200474 -2.65079784 6.64315404 -6 9 C-6.33 7.02 -6.66 5.04 -7 3 C-3.535 2.505 -3.535 2.505 0 2 C0 1.34 0 0.68 0 0 Z " fill="#C53529" transform="translate(274,184)"/>
<path d="M0 0 C1.2065625 0.0309375 1.2065625 0.0309375 2.4375 0.0625 C-0.89583333 2.72916667 -4.22916667 5.39583333 -7.5625 8.0625 C-7.8925 6.4125 -8.2225 4.7625 -8.5625 3.0625 C-7.758125 2.753125 -6.95375 2.44375 -6.125 2.125 C-1.0625 0.02591463 -1.0625 0.02591463 0 0 Z " fill="#C3362B" transform="translate(320.5625,179.9375)"/>
<path d="M0 0 C0.66 0 1.32 0 2 0 C3.26237731 2.52475462 3.09856404 4.31200466 3.0625 7.125 C3.05347656 8.03507813 3.04445312 8.94515625 3.03515625 9.8828125 C3.02355469 10.58148438 3.01195312 11.28015625 3 12 C2.34 12 1.68 12 1 12 C0.67 9.36 0.34 6.72 0 4 C-0.99 4.66 -1.98 5.32 -3 6 C-2 4 -1 2 0 0 Z " fill="#BA3A2E" transform="translate(214,175)"/>
<path d="M0 0 C0.515625 0.268125 1.03125 0.53625 1.5625 0.8125 C4.66401415 2.32349407 7.82262806 3.65572726 11 5 C10.67 6.65 10.34 8.3 10 10 C2.51708428 3.84965831 2.51708428 3.84965831 0 0 Z " fill="#C23B2C" transform="translate(20,399)"/>
<path d="M0 0 C0.99 0 1.98 0 3 0 C3.103125 0.639375 3.20625 1.27875 3.3125 1.9375 C3.539375 2.618125 3.76625 3.29875 4 4 C4.99 4.33 5.98 4.66 7 5 C5.1875 6.5625 5.1875 6.5625 3 8 C2.01 7.67 1.02 7.34 0 7 C0 4.69 0 2.38 0 0 Z " fill="#C23426" transform="translate(149,219)"/>
<path d="M0 0 C-1.24176695 0.70226141 -2.49385599 1.38629109 -3.75 2.0625 C-4.79414063 2.63677734 -4.79414063 2.63677734 -5.859375 3.22265625 C-8.36140628 4.1312406 -9.5332355 3.88336837 -12 3 C-11.67 2.01 -11.34 1.02 -11 0 C-3.375 -1.125 -3.375 -1.125 0 0 Z " fill="#C33B2D" transform="translate(379,419)"/>
<path d="M0 0 C0.88852764 2.48787739 1.17660068 3.58372698 0.125 6.0625 C-0.24625 6.701875 -0.6175 7.34125 -1 8 C-1.33 8.99 -1.66 9.98 -2 11 C-3.32 11 -4.64 11 -6 11 C-4.18690997 7.22272911 -2.0926741 3.62730178 0 0 Z " fill="#C3342D" transform="translate(168,217)"/>
<path d="M0 0 C0.66 0 1.32 0 2 0 C2 2.97 2 5.94 2 9 C2.99 9.33 3.98 9.66 5 10 C3.68 11.32 2.36 12.64 1 14 C0.06380187 10.84493858 -0.1057123 8.03413498 -0.0625 4.75 C-0.05347656 3.85796875 -0.04445312 2.9659375 -0.03515625 2.046875 C-0.02355469 1.37140625 -0.01195312 0.6959375 0 0 Z " fill="#BE332D" transform="translate(227,158)"/>
<path d="M0 0 C0.66 0 1.32 0 2 0 C2.33 0.66 2.66 1.32 3 2 C4.98 2 6.96 2 9 2 C9 3.32 9 4.64 9 6 C8.01 6.495 8.01 6.495 7 7 C5.82780457 6.21654285 4.66236332 5.42297164 3.5 4.625 C2.8503125 4.18414062 2.200625 3.74328125 1.53125 3.2890625 C1.0259375 2.86367188 0.520625 2.43828125 0 2 C0 1.34 0 0.68 0 0 Z " fill="#BE352A" transform="translate(33,410)"/>
<path d="M0 0 C1.258125 -0.04125 2.51625 -0.0825 3.8125 -0.125 C4.52019531 -0.14820313 5.22789062 -0.17140625 5.95703125 -0.1953125 C8 0 8 0 11 2 C7.7 2.66 4.4 3.32 1 4 C0.67 2.68 0.34 1.36 0 0 Z " fill="#B54437" transform="translate(144,237)"/>
<path d="M0 0 C1.6415049 3.2830098 0.51888624 6.42545033 0 10 C-0.99 10 -1.98 10 -3 10 C-3.33 7.69 -3.66 5.38 -4 3 C-2.68 2.01 -1.36 1.02 0 0 Z " fill="#C63831" transform="translate(312,188)"/>
<path d="M0 0 C2.875 0.3125 2.875 0.3125 6 1 C8.1519437 4.22791555 8.20086443 5.28400809 8 9 C5.06799526 6.14723863 2.35684596 3.34920216 0 0 Z " fill="#BC3726" transform="translate(84,218)"/>
<path d="M0 0 C0 3 0 3 -1.125 5.1875 C-3 7 -3 7 -6.1875 7.25 C-7.115625 7.1675 -8.04375 7.085 -9 7 C-6.03716687 4.61327331 -3.05729491 2.2646629 0 0 Z " fill="#C0382B" transform="translate(321,193)"/>
<path d="M0 0 C2.97246802 2.54782974 4.41535288 5.45340883 6 9 C6 9.66 6 10.32 6 11 C5.34 11 4.68 11 4 11 C0 4.5 0 4.5 0 0 Z " fill="#BF3F36" transform="translate(411,48)"/>
<path d="M0 0 C1.3609623 2.7219246 0.70366248 4.1831957 0.0625 7.125 C-0.13214844 8.03507813 -0.32679688 8.94515625 -0.52734375 9.8828125 C-0.68332031 10.58148438 -0.83929688 11.28015625 -1 12 C-1.33 12 -1.66 12 -2 12 C-2 9.69 -2 7.38 -2 5 C-2.99 4.67 -3.98 4.34 -5 4 C-4.34 3.34 -3.68 2.68 -3 2 C-2.67 2.33 -2.34 2.66 -2 3 C-1.34 2.01 -0.68 1.02 0 0 Z M-6 5 C-4 6 -4 6 -4 6 Z " fill="#BE392C" transform="translate(182,210)"/>
<path d="M0 0 C3.39417765 3.12621626 5.6062718 5.56541027 7 10 C6.34 9.67 5.68 9.34 5 9 C5 8.34 5 7.68 5 7 C3.35 7.33 1.7 7.66 0 8 C0.185625 7.236875 0.37125 6.47375 0.5625 5.6875 C1.22819173 2.91032625 1.22819173 2.91032625 0 0 Z " fill="#C23A2A" transform="translate(404,38)"/>
<path d="M0 0 C1.46015291 0.28241641 2.91809793 0.57626614 4.375 0.875 C5.18710937 1.03742187 5.99921875 1.19984375 6.8359375 1.3671875 C9 2 9 2 11 4 C9.02 4.33 7.04 4.66 5 5 C5 4.01 5 3.02 5 2 C3.35 2 1.7 2 0 2 C0 1.34 0 0.68 0 0 Z " fill="#C3392D" transform="translate(357,7)"/>
<path d="M0 0 C0.99 0.33 1.98 0.66 3 1 C1.71283353 2.00578589 0.42011342 3.00446798 -0.875 4 C-1.95394531 4.8353125 -1.95394531 4.8353125 -3.0546875 5.6875 C-5 7 -5 7 -7 7 C-7 6.34 -7 5.68 -7 5 C-6.01 5 -5.02 5 -4 5 C-3.67 4.01 -3.34 3.02 -3 2 C-2.01 2 -1.02 2 0 2 C0 1.34 0 0.68 0 0 Z " fill="#BE3B31" transform="translate(387,410)"/>
<path d="M0 0 C0.33 0 0.66 0 1 0 C1 3.63 1 7.26 1 11 C0.67 11 0.34 11 0 11 C0 9.35 0 7.7 0 6 C-0.99 6.33 -1.98 6.66 -3 7 C-1.125 1.125 -1.125 1.125 0 0 Z " fill="#AE423B" transform="translate(136,206)"/>
<path d="M0 0 C0.66 0.33 1.32 0.66 2 1 C1.835 1.763125 1.67 2.52625 1.5 3.3125 C0.90854604 6.03596236 0.90854604 6.03596236 1 9 C-1.15377564 6.37801226 -2.40072174 4.35595828 -3 1 C-2.01 0.67 -1.02 0.34 0 0 Z " fill="#C04126" transform="translate(10,378)"/>
<path d="M0 0 C0.66 0 1.32 0 2 0 C2 0.66 2 1.32 2 2 C4.475 2.99 4.475 2.99 7 4 C6.01 4.99 5.02 5.98 4 7 C3.67 6.34 3.34 5.68 3 5 C2.01 5 1.02 5 0 5 C0 3.35 0 1.7 0 0 Z " fill="#D13229" transform="translate(237,215)"/>
<path d="M0 0 C2.91517292 1.07401108 4.77810176 1.77810176 7 4 C7.125 6.625 7.125 6.625 7 9 C4.61327331 6.03716687 2.2646629 3.05729491 0 0 Z " fill="#BC322D" transform="translate(382,185)"/>
<path d="M0 0 C1.10844919 3.32534757 0.84454356 5.62182575 0 9 C-0.33 9 -0.66 9 -1 9 C-1 7.35 -1 5.7 -1 4 C-2.32 4.33 -3.64 4.66 -5 5 C-3.35 3.35 -1.7 1.7 0 0 Z " fill="#B7403A" transform="translate(292,183)"/>
<path d="M0 0 C2.44839588 3.67259383 4 6.54648201 4 11 C3.34 11 2.68 11 2 11 C0.19769832 7.17010894 -0.19622241 4.21878192 0 0 Z " fill="#BE3A2D" transform="translate(417,59)"/>
<path d="M0 0 C7.42857143 -0.14285714 7.42857143 -0.14285714 11 1 C11 1.66 11 2.32 11 3 C6.78121808 3.19622241 3.82989106 2.80230168 0 1 C0 0.67 0 0.34 0 0 Z " fill="#C5372A" transform="translate(342,4)"/>
<path d="M0 0 C2 2 2 2 2.125 5.625 C2.08375 6.73875 2.0425 7.8525 2 9 C0.24901874 6.37352812 -1.38731308 3.71224618 -3 1 C-2.01 0.67 -1.02 0.34 0 0 Z " fill="#BF392B" transform="translate(391,260)"/>
<path d="M0 0 C0 0.99 0 1.98 0 3 C-2.4375 2.625 -2.4375 2.625 -5 2 C-5.33 1.34 -5.66 0.68 -6 0 C-3.50907189 -1.24546405 -2.58919267 -0.7767578 0 0 Z " fill="#D82F1C" transform="translate(322,250)"/>
<path d="M0 0 C1.88391785 3.26545761 2.49287967 6.28111761 3 10 C1.68 10 0.36 10 -1 10 C-0.835 9.46375 -0.67 8.9275 -0.5 8.375 C0.09660212 5.54113991 0.0656368 2.8880194 0 0 Z " fill="#CC332A" transform="translate(289,226)"/>
<path d="M0 0 C0.99 1.32 1.98 2.64 3 4 C2.01 5.485 2.01 5.485 1 7 C1 6.34 1 5.68 1 5 C0.34 5 -0.32 5 -1 5 C-1 5.99 -1 6.98 -1 8 C-1.66 8 -2.32 8 -3 8 C-1.125 2.25 -1.125 2.25 0 0 Z " fill="#C33628" transform="translate(132,213)"/>
<path d="M0 0 C0.99 0.33 1.98 0.66 3 1 C1.02 3.97 1.02 3.97 -1 7 C-1.66 6.34 -2.32 5.68 -3 5 C-2.75 2.9375 -2.75 2.9375 -2 1 C-1.34 0.67 -0.68 0.34 0 0 Z " fill="#CA342C" transform="translate(249,209)"/>
<path d="M0 0 C1.485 0.99 1.485 0.99 3 2 C2.67 3.32 2.34 4.64 2 6 C1.01 6 0.02 6 -1 6 C-1.042721 4.33388095 -1.04063832 2.66617115 -1 1 C-0.67 0.67 -0.34 0.34 0 0 Z " fill="#CF2F22" transform="translate(205,188)"/>
<path d="M0 0 C-2.98646769 1.99097846 -5.59687262 2.94124926 -9 4 C-8.625 2.0625 -8.625 2.0625 -8 0 C-5.13822943 -1.43088528 -3.06624227 -0.59991697 0 0 Z " fill="#BB3A2A" transform="translate(60,162)"/>
<path d="M0 0 C2.1519437 3.22791555 2.20086443 4.28400809 2 8 C1.01 8.495 1.01 8.495 0 9 C-0.66 8.34 -1.32 7.68 -2 7 C-1.34 7 -0.68 7 0 7 C-0.185625 6.030625 -0.37125 5.06125 -0.5625 4.0625 C-0.706875 3.051875 -0.85125 2.04125 -1 1 C-0.67 0.67 -0.34 0.34 0 0 Z " fill="#C93628" transform="translate(421,71)"/>
<path d="M0 0 C1.65 0 3.3 0 5 0 C4.67 1.98 4.34 3.96 4 6 C2.68 5.34 1.36 4.68 0 4 C0 2.68 0 1.36 0 0 Z " fill="#D62A1C" transform="translate(286,187)"/>
<path d="M0 0 C2.97 0.495 2.97 0.495 6 1 C4.3545622 2.68762851 2.68711423 4.3540349 1 6 C0.67 6 0.34 6 0 6 C0 4.02 0 2.04 0 0 Z " fill="#C23229" transform="translate(44,166)"/>
<path d="M0 0 C3.465 1.98 3.465 1.98 7 4 C5.02 4.99 5.02 4.99 3 6 C3 5.34 3 4.68 3 4 C2.34 4 1.68 4 1 4 C0.67 2.68 0.34 1.36 0 0 Z " fill="#BE3A26" transform="translate(34,272)"/>
<path d="M0 0 C1.45792884 -0.05399736 2.91642712 -0.09279177 4.375 -0.125 C5.18710937 -0.14820313 5.99921875 -0.17140625 6.8359375 -0.1953125 C9 0 9 0 11 2 C6.74938644 3.41687119 4.28148375 2.19320039 0 1 C0 0.67 0 0.34 0 0 Z " fill="#C6352A" transform="translate(352,265)"/>
<path d="M0 0 C0 0.66 0 1.32 0 2 C-0.99 2.33 -1.98 2.66 -3 3 C-3.33 3.66 -3.66 4.32 -4 5 C-5.65 5 -7.3 5 -9 5 C-2.87096774 0 -2.87096774 0 0 0 Z " fill="#B9352D" transform="translate(127,255)"/>
<path d="M0 0 C2.64 0 5.28 0 8 0 C8 3 8 3 6.5 4.6875 C6.005 5.120625 5.51 5.55375 5 6 C5.33 4.35 5.66 2.7 6 1 C4.02 1 2.04 1 0 1 C0 0.67 0 0.34 0 0 Z " fill="#B03B32" transform="translate(248,202)"/>
<path d="M0 0 C1.98 0 3.96 0 6 0 C5.67 0.99 5.34 1.98 5 3 C5.99 3.33 6.98 3.66 8 4 C7.01 4.495 7.01 4.495 6 5 C3.98079663 3.69593116 1.98075027 2.36176581 0 1 C0 0.67 0 0.34 0 0 Z " fill="#C0372F" transform="translate(59,201)"/>
<path d="M0 0 C0.66 0.33 1.32 0.66 2 1 C1.3125 2.9375 1.3125 2.9375 0 5 C-2.625 5.75 -2.625 5.75 -5 6 C-3.63016497 2.83884224 -3.0109362 2.0072908 0 0 Z " fill="#BF3B2C" transform="translate(58,173)"/>
<path d="M0 0 C0.33 0 0.66 0 1 0 C1 2.31 1 4.62 1 7 C-0.32 7.33 -1.64 7.66 -3 8 C-1.125 2.25 -1.125 2.25 0 0 Z " fill="#C03C30" transform="translate(8,51)"/>
</svg>
